<svg xmlns="http://www.w3.org/2000/svg" xmlns:xlink="http://www.w3.org/1999/xlink" viewBox="0 0 339.82 128.16"><defs><style>.cls-1{fill:url(#linear-gradient);}.cls-2{fill:url(#linear-gradient-2);}.cls-3{fill:url(#linear-gradient-3);}.cls-4{fill:url(#linear-gradient-4);}</style><linearGradient id="linear-gradient" y1="63.36" x2="85.5" y2="63.36" gradientUnits="userSpaceOnUse"><stop offset="0" stop-color="red"/><stop offset="1" stop-color="#f7931e"/></linearGradient><linearGradient id="linear-gradient-2" x1="92.04" y1="81.52" x2="185.67" y2="81.52" xlink:href="#linear-gradient"/><linearGradient id="linear-gradient-3" x1="194.13" y1="81.52" x2="267.88" y2="81.52" xlink:href="#linear-gradient"/><linearGradient id="linear-gradient-4" x1="275.11" y1="69.86" x2="339.82" y2="69.86" xlink:href="#linear-gradient"/></defs><title>logo</title><g id="Layer_2" data-name="Layer 2"><g id="Layer_1-2" data-name="Layer 1"><path class="cls-1" d="M0,0H85.5V21.51h-60v105.2H0ZM41.76,75.92,30,52.42H70.14v23.5Z"/><path class="cls-2" d="M139,34.89a44.7,44.7,0,0,1,18.07,3.7A47.31,47.31,0,0,1,182,63.45a45.14,45.14,0,0,1,3.7,18.25,46.79,46.79,0,0,1-1.08,10.13l-.18.36H138.5L126.93,73.75h34.34a27,27,0,0,0-8.4-12.47A21,21,0,0,0,139,56.4a21.92,21.92,0,0,0-9.22,2,23.64,23.64,0,0,0-12.47,13.24,26.93,26.93,0,0,0-1.81,10,24.53,24.53,0,0,0,1.63,8.56,26.11,26.11,0,0,0,4.7,8,26.89,26.89,0,0,0,7.41,6,19.6,19.6,0,0,0,9.76,2.43,28.05,28.05,0,0,0,9-1.36q4.06-1.35,7.68-6.05l.18-.18.36.18,21,9.23-.36.37a45.16,45.16,0,0,1-16.54,14.22,46.25,46.25,0,0,1-21.24,5.1,46.79,46.79,0,0,1-18.35-3.62,46.05,46.05,0,0,1-14.91-9.94,47.33,47.33,0,0,1-10-14.82,46.32,46.32,0,0,1,0-36.33,47.09,47.09,0,0,1,24.94-24.86A45.8,45.8,0,0,1,139,34.89Z"/><path class="cls-3" d="M240.4,73q6,2,10.94,4.06a38,38,0,0,1,8.68,5,20.86,20.86,0,0,1,5.78,7,21.13,21.13,0,0,1,2.08,9.68v.18q0,13.74-9.13,21.51t-25.58,7.77a59.89,59.89,0,0,1-20.24-3.55,69.33,69.33,0,0,1-18.62-10.12l-.18-.18.18-.19,12.29-19.4.18.18a36.92,36.92,0,0,0,12.29,8.77,36.52,36.52,0,0,0,14.65,3q10.65,0,10.66-6.85c0-2.17-1.15-3.79-3.43-4.87a63,63,0,0,0-8.14-3.07,7.43,7.43,0,0,0-1.72-.45,5.87,5.87,0,0,1-1.71-.45q-5.43-1.44-10.85-3.15a36.75,36.75,0,0,1-9.76-4.69,24.62,24.62,0,0,1-7.14-7.57q-2.81-4.6-2.8-11.81v-.36a27.75,27.75,0,0,1,2.35-11.54,25.82,25.82,0,0,1,6.69-9A30.58,30.58,0,0,1,218.35,37a42.25,42.25,0,0,1,13.56-2.07,61.44,61.44,0,0,1,17.53,2.62,60.6,60.6,0,0,1,16.45,7.68v.36l-11,20.07-.18-.18a29.73,29.73,0,0,0-10.3-6.6,34.9,34.9,0,0,0-13-2.44,26.74,26.74,0,0,0-2.9.18,8.22,8.22,0,0,0-3,.9,7.08,7.08,0,0,0-2.26,1.9,5.42,5.42,0,0,0-.9,3.34,4.06,4.06,0,0,0,1.44,3,17,17,0,0,0,3.71,2.53,52,52,0,0,0,5.06,2.26q2.81,1.08,5.51,2a4.4,4.4,0,0,1,1.18.18Z"/><path class="cls-4" d="M312.17,95.8a9.41,9.41,0,0,0,3,7,9.88,9.88,0,0,0,7.14,2.9h17.53v21H322.29A33.92,33.92,0,0,1,309,124.09a33.23,33.23,0,0,1-10.84-7.23,34.73,34.73,0,0,1-7.32-10.75,32.32,32.32,0,0,1-2.72-13.2V65.8h-13V45.73h13V13h24.05Zm27.65-50.07V65.8H326.45L315.24,45.73Z"/></g></g></svg>